<?xml version="1.0" encoding="UTF-8"?>
<svg id="_Слой_1" data-name="Слой 1" xmlns="http://www.w3.org/2000/svg" xmlns:xlink="http://www.w3.org/1999/xlink" viewBox="0 0 30.85 30.85">
  <defs>
    <style>
      .cls-1 {
        fill: #dc700f;
      }

      .cls-2 {
        clip-path: url(#clippath);
      }

      .cls-3 {
        fill: none;
      }
    </style>
    <clipPath id="clippath">
      <rect class="cls-3" width="30.85" height="30.85"/>
    </clipPath>
  </defs>
  <g class="cls-2">
    <g>
      <path class="cls-1" d="m30.83,27.03l-.66-2.47c-.09-.32-.42-.51-.74-.43-.32.09-.51.42-.43.74l.29,1.08-4.23-2.41v-10.02c0-.22-.12-.41-.3-.52l-8.74-5.02V3.2l.78.78c.24.24.62.24.85,0,.24-.24.24-.62,0-.85l-1.81-1.81c-.24-.24-.62-.23-.85,0l-1.81,1.81c-.24.24-.24.62,0,.85.24.24.62.24.85,0l.78-.78v4.77l-8.68,5.02c-.19.11-.3.31-.3.52v9.93l-4.29,2.44.29-1.08c.09-.32-.1-.65-.43-.74-.32-.09-.65.1-.74.43L.02,26.95c-.08.31.1.66.44.74l2.45.66c.32.09.65-.11.74-.43.09-.32-.1-.65-.43-.74l-1.05-.28,4.26-2.42,8.72,5.13c.19.11.42.11.61,0l2.21-1.27c.29-.17.39-.53.22-.82-.17-.29-.53-.39-.82-.22l-1.91,1.1-7.82-4.6,7.74-4.4,7.89,4.5-1.21.7c-.29.17-.39.53-.22.82.17.29.53.39.82.22l1.82-1.05,4.18,2.38-1.05.28c-.32.09-.51.42-.43.74.09.32.41.51.74.43l2.41-.65c.34-.06.57-.41.48-.75h0Zm-6.97-4.18l-7.83-4.47v-9.02l7.83,4.5v8.99ZM7.05,13.86l7.77-4.5v8.98l-7.77,4.42v-8.89Z"/>
      <path class="cls-1" d="m20,27.05c.33,0,.6-.27.6-.6s-.27-.6-.6-.6-.6.27-.6.6.27.6.6.6Z"/>
    </g>
  </g>
</svg>