<?xml version="1.0" encoding="UTF-8"?>
<svg id="_Слой_1" data-name="Слой 1" xmlns="http://www.w3.org/2000/svg" xmlns:xlink="http://www.w3.org/1999/xlink" viewBox="0 0 25 25">
  <defs>
    <style>
      .cls-1 {
        fill: #fff;
      }

      .cls-2 {
        clip-path: url(#clippath);
      }

      .cls-3 {
        fill: #fff;
      }
    </style>
    <clipPath id="clippath">
      <rect class="cls-3" width="25" height="25"/>
    </clipPath>
  </defs>
  <g class="cls-2">
    <path class="cls-1" d="m21.82,14.64c-.29-3.73-2.02-6.06-3.55-8.13-1.42-1.91-2.64-3.56-2.64-5.99,0-.2-.11-.37-.28-.46-.17-.09-.38-.08-.54.04-2.3,1.65-4.22,4.42-4.89,7.07-.47,1.84-.53,3.91-.54,5.28-2.12-.45-2.61-3.63-2.61-3.67-.02-.16-.12-.31-.27-.39-.15-.08-.32-.08-.47,0-.11.05-2.73,1.39-2.89,6.71-.01.18-.01.35-.01.53,0,5.17,4.21,9.37,9.38,9.37,0,0,.01,0,.02,0h0c5.16-.01,9.35-4.21,9.35-9.37,0-.26-.05-.99-.05-.99Zm-9.32,9.32c-1.72,0-3.12-1.49-3.12-3.33,0-.06,0-.13,0-.2.02-.77.17-1.3.33-1.65.3.65.84,1.25,1.72,1.25.29,0,.52-.23.52-.52,0-.74.02-1.6.2-2.37.16-.68.56-1.41,1.05-2,.22.76.65,1.37,1.07,1.97.6.86,1.23,1.74,1.34,3.25,0,.09.01.18.01.28,0,1.84-1.4,3.33-3.13,3.33Z"/>
  </g>
</svg>