<?xml version="1.0" encoding="UTF-8"?>
<svg id="_Слой_1" data-name="Слой 1" xmlns="http://www.w3.org/2000/svg" viewBox="0 0 18.9 27.19">
  <defs>
    <style>
      .cls-1 {
        fill: #DC7000;
      }
    </style>
  </defs>
  <path class="cls-1" d="m9.45,0C4.24,0,0,4.24,0,9.45c0,6.55,9.46,17.74,9.46,17.74,0,0,9.44-11.51,9.44-17.74C18.9,4.24,14.66,0,9.45,0Zm2.85,12.22c-.79.79-1.82,1.18-2.85,1.18s-2.07-.39-2.85-1.18c-1.57-1.57-1.57-4.13,0-5.7.76-.76,1.77-1.18,2.85-1.18s2.09.42,2.85,1.18c1.57,1.57,1.57,4.13,0,5.7Z"/>
</svg>