<?xml version="1.0" encoding="UTF-8"?>
<svg id="_Слой_1" data-name="Слой 1" xmlns="http://www.w3.org/2000/svg" xmlns:xlink="http://www.w3.org/1999/xlink" viewBox="0 0 13 13">
  <defs>
    <style>
      .cls-1 {
        fill: #fff;
      }

      .cls-2 {
        clip-path: url(#clippath);
      }

      .cls-3 {
        fill: none;
      }
    </style>
    <clipPath id="clippath">
      <rect class="cls-3" width="13" height="13"/>
    </clipPath>
  </defs>
  <g class="cls-2">
    <g>
      <path class="cls-1" d="m9.48,0H3.52C1.58,0,0,1.58,0,3.52v5.96c0,1.94,1.58,3.52,3.52,3.52h5.96c1.94,0,3.52-1.58,3.52-3.52V3.52c0-1.94-1.58-3.52-3.52-3.52h0Zm2.76,9.48c0,1.52-1.24,2.76-2.76,2.76H3.52c-1.52,0-2.76-1.24-2.76-2.76V3.52C.76,2,2,.76,3.52.76h5.96c1.52,0,2.76,1.24,2.76,2.76v5.96Z"/>
      <path class="cls-1" d="m6.5,2.95c-1.96,0-3.55,1.59-3.55,3.55s1.59,3.55,3.55,3.55,3.55-1.59,3.55-3.55-1.59-3.55-3.55-3.55Zm0,6.35c-1.54,0-2.79-1.25-2.79-2.79s1.25-2.79,2.79-2.79,2.79,1.25,2.79,2.79-1.25,2.79-2.79,2.79Z"/>
      <path class="cls-1" d="m10.14,1.68c-.58,0-1.05.47-1.05,1.05s.47,1.05,1.05,1.05,1.05-.47,1.05-1.05-.47-1.05-1.05-1.05Zm0,1.34c-.16,0-.29-.13-.29-.29s.13-.29.29-.29.29.13.29.29-.13.29-.29.29Z"/>
    </g>
  </g>
</svg>