<?xml version="1.0" encoding="UTF-8"?>
<svg id="_Слой_1" data-name="Слой 1" xmlns="http://www.w3.org/2000/svg" viewBox="0 0 14 20">
  <defs>
    <style>
      .cls-1 {
        fill: #dc700f;
      }
    </style>
  </defs>
  <path class="cls-1" d="m14,7c0-.92-.18-1.83-.53-2.68-.35-.85-.87-1.62-1.52-2.27-.65-.65-1.42-1.17-2.27-1.52-.85-.35-1.76-.53-2.68-.53s-1.83.18-2.68.53c-.85.35-1.62.87-2.27,1.52s-1.17,1.42-1.52,2.27c-.35.85-.53,1.76-.53,2.68,0,1.39.41,2.68,1.11,3.77h0c2.36,3.69,5.9,9.23,5.9,9.23l5.9-9.23h0c.72-1.12,1.1-2.43,1.1-3.77Zm-7,3c-.8,0-1.56-.32-2.12-.88-.56-.56-.88-1.33-.88-2.12s.32-1.56.88-2.12c.56-.56,1.33-.88,2.12-.88s1.56.32,2.12.88c.56.56.88,1.33.88,2.12s-.32,1.56-.88,2.12-1.33.88-2.12.88Z"/>
</svg>