<?xml version="1.0" encoding="UTF-8"?>
<svg id="_Слой_1" data-name="Слой 1" xmlns="http://www.w3.org/2000/svg" xmlns:xlink="http://www.w3.org/1999/xlink" viewBox="0 0 31.95 31.95">
  <defs>
    <style>
      .cls-1 {
        fill: #dc700f;
      }

      .cls-2 {
        clip-path: url(#clippath);
      }

      .cls-3 {
        fill: none;
      }
    </style>
    <clipPath id="clippath">
      <rect class="cls-3" width="31.95" height="31.95"/>
    </clipPath>
  </defs>
  <g class="cls-2">
    <g>
      <path class="cls-1" d="m2.66,12.78c.14,0,.28-.05.38-.15l2.13-2.13c.21-.21.21-.55,0-.76-.21-.21-.55-.21-.76,0l-2.13,2.13c-.1.1-.16.24-.16.38s.06.28.16.38c.1.1.24.16.38.15h0Z"/>
      <path class="cls-1" d="m2.66,15.97c.14,0,.28-.05.38-.15l5.32-5.32c.21-.21.21-.55,0-.76s-.55-.21-.76,0l-5.32,5.32c-.1.1-.16.24-.16.38s.06.28.16.38c.1.1.24.16.38.15h0Z"/>
      <path class="cls-1" d="m30.35,0h-13.84c-.88,0-1.6.72-1.6,1.6v5.86H2.66c-1.47,0-2.66,1.19-2.66,2.66v13.84c0,1.47,1.19,2.66,2.66,2.66h5.86v2.13h-1.6c-.88,0-1.6.72-1.6,1.6s.72,1.6,1.6,1.6h23.43c.88,0,1.6-.72,1.6-1.6V1.6c0-.88-.72-1.6-1.6-1.6ZM2.66,8.52h19.17c.88,0,1.6.72,1.6,1.6v12.78H1.06v-12.78c0-.88.72-1.6,1.6-1.6Zm-1.6,15.44h22.36c0,.88-.72,1.6-1.6,1.6H2.66c-.88,0-1.6-.72-1.6-1.6Zm8.52,2.66h5.32v2.13h-5.32v-2.13Zm6.92,4.26H6.92c-.29,0-.53-.24-.53-.53s.24-.53.53-.53h10.65c.29,0,.53.24.53.53s-.24.53-.53.53h-1.06Zm14.38-.53c0,.29-.24.53-.53.53h-11.28c.17-.49.1-1.03-.2-1.45-.3-.42-.78-.68-1.3-.68h-1.6v-2.13h5.86c1.47,0,2.66-1.19,2.66-2.66v-13.84c0-1.47-1.19-2.66-2.66-2.66h-5.86V1.6c0-.29.24-.53.53-.53h13.84c.29,0,.53.24.53.53v28.75Z"/>
      <path class="cls-1" d="m28.75,2.66h-10.65c-.59,0-1.07.48-1.07,1.06v1.06c0,.59.48,1.06,1.07,1.06h10.65c.59,0,1.07-.48,1.07-1.06v-1.06c0-.59-.48-1.06-1.07-1.06Zm-10.65,2.13v-1.06h10.65v1.06h-10.65Z"/>
      <path class="cls-1" d="m27.69,10.65c.88,0,1.6-.72,1.6-1.6s-.72-1.6-1.6-1.6-1.6.72-1.6,1.6.72,1.6,1.6,1.6Zm0-2.13c.29,0,.53.24.53.53s-.24.53-.53.53-.53-.24-.53-.53.24-.53.53-.53Z"/>
      <path class="cls-1" d="m29.29,13.31c0-.88-.72-1.6-1.6-1.6s-1.6.72-1.6,1.6.72,1.6,1.6,1.6,1.6-.72,1.6-1.6Zm-1.6.53c-.29,0-.53-.24-.53-.53s.24-.53.53-.53.53.24.53.53-.24.53-.53.53Z"/>
      <path class="cls-1" d="m20.77,27.69c-.29,0-.53.24-.53.53v1.06c0,.29.24.53.53.53s.53-.24.53-.53v-1.06c0-.29-.24-.53-.53-.53Z"/>
      <path class="cls-1" d="m22.9,27.69c-.29,0-.53.24-.53.53v1.06c0,.29.24.53.53.53s.53-.24.53-.53v-1.06c0-.29-.24-.53-.53-.53Z"/>
      <path class="cls-1" d="m25.03,27.69c-.29,0-.53.24-.53.53v1.06c0,.29.24.53.53.53s.53-.24.53-.53v-1.06c0-.29-.24-.53-.53-.53Z"/>
      <path class="cls-1" d="m27.16,27.69c-.29,0-.53.24-.53.53v1.06c0,.29.24.53.53.53s.53-.24.53-.53v-1.06c0-.29-.24-.53-.53-.53Z"/>
      <path class="cls-1" d="m29.29,27.69c-.29,0-.53.24-.53.53v1.06c0,.29.24.53.53.53s.53-.24.53-.53v-1.06c0-.29-.24-.53-.53-.53Z"/>
    </g>
  </g>
</svg>