<?xml version="1.0" encoding="UTF-8"?>
<svg id="_Слой_1" data-name="Слой 1" xmlns="http://www.w3.org/2000/svg" xmlns:xlink="http://www.w3.org/1999/xlink" viewBox="0 0 30 30">
  <defs>
    <style>
      .cls-1 {
        fill: #fff;
      }

      .cls-2 {
        clip-path: url(#clippath);
      }

      .cls-3 {
        fill: none;
      }
    </style>
    <clipPath id="clippath">
      <rect class="cls-3" width="30" height="30"/>
    </clipPath>
  </defs>
  <g class="cls-2">
    <g>
      <path class="cls-1" d="m10.08,12.35c1.03-1.03,1.03-2.7,0-3.73l-3.62-3.62c-.55-.55-1.32-.83-2.1-.77-.77.06-1.46.45-1.91,1.07-.09.13-.18.26-.27.39l7.27,7.27.62-.62Z"/>
      <path class="cls-1" d="m25,23.54l-3.62-3.62c-1.03-1.03-2.7-1.03-3.73,0l-.62.62,7.27,7.27c.13-.09.26-.18.39-.27.62-.44,1.01-1.14,1.07-1.91.06-.78-.22-1.55-.77-2.1Z"/>
      <path class="cls-1" d="m14.54,21.94c-.7,0-1.37-.27-1.86-.77l-3.85-3.85c-.5-.5-.77-1.16-.77-1.86,0-.4.09-.79.26-1.14L1.29,7.29C.3,9.36-.14,11.69.04,14.03c.24,3.15,1.6,6.1,3.82,8.32l3.79,3.79c2.22,2.22,5.18,3.58,8.32,3.82.34.03.69.04,1.03.04,1.98,0,3.94-.44,5.71-1.29l-7.03-7.03c-.35.17-.74.26-1.14.26Z"/>
      <path class="cls-1" d="m17.7,0c-.49,0-.88.39-.88.88s.39.88.88.88c5.82,0,10.55,4.73,10.55,10.55,0,.49.39.88.88.88s.88-.39.88-.88c0-6.78-5.52-12.3-12.3-12.3Z"/>
      <path class="cls-1" d="m17.69,12.3s0,0,0,0c0,.49.39.88.88.88s.88-.39.88-.88c0-.97-.79-1.76-1.76-1.76-.49,0-.88.39-.88.88s.39.88.88.88Z"/>
      <path class="cls-1" d="m17.7,8.79c1.94,0,3.52,1.58,3.52,3.52,0,.49.39.88.88.88s.88-.39.88-.88c0-2.91-2.37-5.27-5.27-5.27-.49,0-.88.39-.88.88s.39.88.88.88Z"/>
      <path class="cls-1" d="m17.7,3.52c-.49,0-.88.39-.88.88s.39.88.88.88c3.88,0,7.03,3.15,7.03,7.03,0,.49.39.88.88.88s.88-.39.88-.88c0-4.85-3.94-8.79-8.79-8.79Z"/>
    </g>
  </g>
</svg>