<?xml version="1.0" encoding="UTF-8"?>
<svg id="_Слой_1" data-name="Слой 1" xmlns="http://www.w3.org/2000/svg" xmlns:xlink="http://www.w3.org/1999/xlink" viewBox="0 0 29.75 29.75">
  <defs>
    <style>
      .cls-1 {
        fill: #dc700f;
      }

      .cls-2 {
        clip-path: url(#clippath);
      }

      .cls-3 {
        fill: none;
      }
    </style>
    <clipPath id="clippath">
      <rect class="cls-3" width="29.75" height="29.75"/>
    </clipPath>
  </defs>
  <g class="cls-2">
    <g>
      <path class="cls-1" d="m21.12,0h-12.49c-1.2,0-2.18.98-2.18,2.18v25.38c0,1.2.98,2.18,2.18,2.18h12.49c1.2,0,2.18-.98,2.18-2.18V2.18c0-1.2-.98-2.18-2.18-2.18ZM7.44,3.97h14.87v18.84H7.44V3.97Zm1.19-2.97h12.49c.66,0,1.19.53,1.19,1.19v.79H7.44v-.79c0-.66.53-1.19,1.19-1.19Zm12.49,27.76h-12.49c-.66,0-1.19-.53-1.19-1.19v-3.77h14.87v3.77c0,.66-.53,1.19-1.19,1.19Z"/>
      <path class="cls-1" d="m14.87,24.29c-1.09,0-1.98.89-1.98,1.98s.89,1.98,1.98,1.98,1.98-.89,1.98-1.98-.89-1.98-1.98-1.98Zm0,2.97c-.55,0-.99-.44-.99-.99s.44-.99.99-.99.99.44.99.99-.44.99-.99.99Z"/>
      <path class="cls-1" d="m12.89,2.48h1.98c.27,0,.5-.22.5-.5s-.22-.5-.5-.5h-1.98c-.27,0-.5.22-.5.5s.22.5.5.5Z"/>
      <path class="cls-1" d="m16.36,2.48h.5c.27,0,.5-.22.5-.5s-.22-.5-.5-.5h-.5c-.27,0-.5.22-.5.5s.22.5.5.5Z"/>
      <path class="cls-1" d="m28.07,2.27c-.19-.19-.51-.19-.7,0-.19.19-.19.51,0,.7,1.85,1.85,1.85,4.87,0,6.72-.19.19-.19.51,0,.7.1.1.22.15.35.15s.25-.05.35-.15c2.24-2.24,2.24-5.88,0-8.12Z"/>
      <path class="cls-1" d="m25.98,3.39c-.19-.19-.51-.19-.7,0-.19.19-.19.51,0,.7.61.61.95,1.43.95,2.3s-.34,1.69-.95,2.3c-.19.19-.19.51,0,.7.1.1.22.15.35.15s.25-.05.35-.15c.8-.8,1.24-1.87,1.24-3s-.44-2.2-1.24-3Z"/>
      <path class="cls-1" d="m2.38,2.97c.19-.19.19-.51,0-.7s-.51-.19-.7,0C-.56,4.5-.56,8.15,1.68,10.39c.1.1.22.15.35.15s.25-.05.35-.15c.19-.19.19-.51,0-.7-1.85-1.85-1.85-4.87,0-6.72Z"/>
      <path class="cls-1" d="m4.47,3.26c-.19-.19-.51-.19-.7,0-.8.8-1.24,1.87-1.24,3s.44,2.2,1.24,3c.1.1.22.15.35.15s.25-.05.35-.15c.19-.19.19-.51,0-.7-.61-.61-.95-1.43-.95-2.3s.34-1.69.95-2.3c.19-.19.19-.51,0-.7Z"/>
    </g>
  </g>
</svg>