<?xml version="1.0" encoding="UTF-8"?>
<svg id="_Слой_1" data-name="Слой 1" xmlns="http://www.w3.org/2000/svg" xmlns:xlink="http://www.w3.org/1999/xlink" viewBox="0 0 39.66 39.66">
  <defs>
    <style>
      .cls-1 {
        fill: #dc700f;
      }

      .cls-2 {
        clip-path: url(#clippath);
      }

      .cls-3 {
        fill: none;
      }
    </style>
    <clipPath id="clippath">
      <rect class="cls-3" width="39.66" height="39.66"/>
    </clipPath>
  </defs>
  <g class="cls-2">
    <g>
      <path class="cls-1" d="m8.19,14.02H0v2.32h8.19c.64,0,1.16.52,1.16,1.16s-.52,1.16-1.16,1.16H3.49c-1.92,0-3.49,1.56-3.49,3.49v3.49h2.32v-3.49c0-.64.52-1.16,1.16-1.16h4.7c1.92,0,3.49-1.56,3.49-3.49s-1.56-3.49-3.49-3.49Z"/>
      <path class="cls-1" d="m20.41,14.02c-1.92,0-3.49,1.56-3.49,3.49v4.65c0,.64-.52,1.16-1.16,1.16h-5.25v2.32h5.25c1.92,0,3.49-1.56,3.49-3.49v-4.65c0-.64.52-1.16,1.16-1.16h5.25v-2.32h-5.25Z"/>
      <path class="cls-1" d="m37.34,20.99v-4.65c0-1.28-1.04-2.32-2.32-2.32-.44,0-.87.12-1.24.36l-7.36,4.65c-.68.43-1.08,1.16-1.08,1.97,0,1.28,1.04,2.32,2.32,2.32h7.36v2.32h2.32v-2.32h2.32v-2.32h-2.32Zm-2.32,0h-7.36s7.36-4.65,7.36-4.65v4.65Z"/>
    </g>
  </g>
</svg>