<?xml version="1.0" encoding="UTF-8"?>
<svg id="_Слой_1" data-name="Слой 1" xmlns="http://www.w3.org/2000/svg" viewBox="0 0 20 18">
  <defs>
    <style>
      .cls-1 {
        fill: #dc700f;
      }
    </style>
  </defs>
  <path class="cls-1" d="m18,0H2C1.47,0,.96.21.59.59c-.38.38-.59.88-.59,1.41v4c0,.53.21,1.04.59,1.41.38.38.88.59,1.41.59h16c.53,0,1.04-.21,1.41-.59.38-.38.59-.88.59-1.41V2c0-.53-.21-1.04-.59-1.41-.38-.38-.88-.59-1.41-.59Zm-5,4c0,.55-.45,1-1,1s-1-.45-1-1,.45-1,1-1,1,.45,1,1Zm4,0c0,.55-.45,1-1,1s-1-.45-1-1,.45-1,1-1,1,.45,1,1Zm1,6H2c-.53,0-1.04.21-1.41.59-.38.38-.59.88-.59,1.41v4c0,.53.21,1.04.59,1.41.38.38.88.59,1.41.59h16c.53,0,1.04-.21,1.41-.59.38-.38.59-.88.59-1.41v-4c0-.53-.21-1.04-.59-1.41-.38-.38-.88-.59-1.41-.59Zm-5,4c0,.55-.45,1-1,1s-1-.45-1-1,.45-1,1-1,1,.45,1,1Zm4,0c0,.55-.45,1-1,1s-1-.45-1-1,.45-1,1-1,1,.45,1,1Z"/>
</svg>