<?xml version="1.0" encoding="UTF-8"?>
<svg id="_Слой_1" data-name="Слой 1" xmlns="http://www.w3.org/2000/svg" xmlns:xlink="http://www.w3.org/1999/xlink" viewBox="0 0 13 13">
  <defs>
    <style>
      .cls-1 {
        fill: #fff;
      }

      .cls-2 {
        clip-path: url(#clippath);
      }

      .cls-3 {
        fill: none;
      }
    </style>
    <clipPath id="clippath">
      <rect class="cls-3" width="13" height="13"/>
    </clipPath>
  </defs>
  <g class="cls-2">
    <path class="cls-1" d="m13,2.47c-.48.21-1,.35-1.54.42.55-.33.97-.85,1.17-1.47-.52.31-1.08.52-1.69.65-.49-.52-1.19-.84-1.95-.84-1.48,0-2.66,1.2-2.66,2.67,0,.21.02.41.06.61-2.22-.11-4.18-1.17-5.49-2.79-.23.4-.36.86-.36,1.35,0,.92.48,1.74,1.18,2.21-.43,0-.85-.13-1.2-.33v.03c0,1.3.92,2.37,2.14,2.62-.22.06-.45.09-.7.09-.17,0-.34,0-.5-.05.35,1.06,1.33,1.83,2.49,1.86-.91.71-2.06,1.14-3.3,1.14-.22,0-.43,0-.64-.04,1.18.76,2.58,1.2,4.09,1.2,4.9,0,7.59-4.06,7.59-7.58,0-.12,0-.23,0-.34.53-.38.97-.84,1.34-1.38Z"/>
  </g>
</svg>