<?xml version="1.0" encoding="UTF-8"?>
<svg id="_Слой_1" data-name="Слой 1" xmlns="http://www.w3.org/2000/svg" viewBox="0 0 15.86 18">
  <defs>
    <style>
      .cls-1 {
        fill: #dc700f;
        fill-rule: evenodd;
      }
    </style>
  </defs>
  <path class="cls-1" d="m7.93,7.2c.95,0,1.87-.38,2.55-1.05.68-.68,1.05-1.59,1.05-2.55s-.38-1.87-1.05-2.55c-.68-.68-1.59-1.05-2.55-1.05s-1.87.38-2.55,1.05c-.68.68-1.05,1.59-1.05,2.55s.38,1.87,1.05,2.55c.68.68,1.59,1.05,2.55,1.05Zm-5.1,10.8c-1.82,0-3.36-1.53-2.66-3.21.42-1.02,1.04-1.95,1.82-2.73.78-.78,1.71-1.4,2.73-1.82,1.02-.42,2.11-.64,3.21-.64s2.2.22,3.21.64c1.02.42,1.95,1.04,2.73,1.82.78.78,1.4,1.71,1.82,2.73.7,1.68-.84,3.21-2.66,3.21H2.83Z"/>
</svg>