<?xml version="1.0" encoding="UTF-8"?>
<svg id="_Слой_1" data-name="Слой 1" xmlns="http://www.w3.org/2000/svg" xmlns:xlink="http://www.w3.org/1999/xlink" viewBox="0 0 30.85 30.85">
  <defs>
    <style>
      .cls-1 {
        fill: #dc700f;
      }

      .cls-2 {
        clip-path: url(#clippath);
      }

      .cls-3 {
        fill: none;
      }
    </style>
    <clipPath id="clippath">
      <rect class="cls-3" width="30.85" height="30.85"/>
    </clipPath>
  </defs>
  <g class="cls-2">
    <g>
      <path class="cls-1" d="m18.04,23.28c-1.69.56-3.55.56-5.24,0-.47-.16-.99.1-1.14.57-.16.47.1.99.57,1.14,1.03.34,2.11.51,3.19.51s2.16-.17,3.19-.51c.47-.16.73-.67.57-1.14-.16-.47-.67-.73-1.14-.57h0Z"/>
      <path class="cls-1" d="m25.95,5.9c-.38-2.76-2.75-4.94-5.69-4.94h-1.03v-.06c0-.5-.4-.9-.9-.9h-5.81c-.5,0-.9.4-.9.9v.06h-1.03c-2.91,0-5.28,2.15-5.69,4.94-1.69.39-2.96,1.9-2.96,3.71v7.74c0,2.48,2.02,3.49,2.93,3.7.41,5.58,5.1,9.78,10.55,9.78s10.14-4.32,10.55-9.78c2.38-.56,2.93-2.72,2.93-3.7v-7.74c0-1.81-1.27-3.33-2.96-3.71h0Zm-6.72-3.13h1.03c2.56,0,3.61,2.09,3.83,3.03h-4.87v-3.03Zm-5.81-.97h4v4h-4V1.81Zm-2.84.97h1.03v3.03h-4.86c.59-2.46,2.81-3.03,3.83-3.03h0Zm4.84,26.26c-4.46,0-8.27-3.38-8.73-7.87h4.46c1.11,0,2.19-.45,2.98-1.23,0,0,0,0,.01-.01.34-.33.81-.52,1.28-.52s.94.19,1.28.52c0,0,0,0,.01.01.78.78,1.87,1.23,2.98,1.23h4.46c-.45,4.42-4.2,7.87-8.73,7.87h0Zm11.68-11.68c0,1.12-.91,2-2,2h-5.41c-.63,0-1.24-.25-1.68-.69,0,0,0-.01-.01-.02-.68-.68-1.62-1.07-2.58-1.07s-1.9.39-2.58,1.07c0,0,0,.01-.01.02-.45.44-1.06.69-1.68.69h-5.41c-1.09,0-2-.88-2-2v-7.74c0-1.1.9-2,2-2h19.36c1.1,0,2,.9,2,2v7.74h0Z"/>
    </g>
  </g>
</svg>