<?xml version="1.0" encoding="UTF-8"?>
<svg id="_Слой_1" data-name="Слой 1" xmlns="http://www.w3.org/2000/svg" xmlns:xlink="http://www.w3.org/1999/xlink" viewBox="0 0 33.05 33.05">
  <defs>
    <style>
      .cls-1 {
        fill: #dc700f;
      }

      .cls-2 {
        clip-path: url(#clippath);
      }

      .cls-3 {
        fill: none;
      }
    </style>
    <clipPath id="clippath">
      <rect class="cls-3" width="33.05" height="33.05"/>
    </clipPath>
  </defs>
  <g class="cls-2">
    <g>
      <path class="cls-1" d="m29.19,1.65H3.86C1.73,1.65,0,3.38,0,5.51v22.03c0,2.13,1.73,3.85,3.86,3.86h25.34c2.13,0,3.85-1.73,3.86-3.86V5.51c0-2.13-1.73-3.85-3.86-3.86Zm2.75,25.89c0,1.52-1.23,2.75-2.75,2.75H3.86c-1.52,0-2.75-1.23-2.75-2.75V5.51c0-1.52,1.23-2.75,2.75-2.75h25.34c1.52,0,2.75,1.23,2.75,2.75v22.03Z"/>
      <path class="cls-1" d="m29.19,6.06H3.86c-.91,0-1.65.74-1.65,1.65v19.83c0,.91.74,1.65,1.65,1.65h25.34c.91,0,1.65-.74,1.65-1.65V7.71c0-.91-.74-1.65-1.65-1.65Zm-12.67,10.94l-6-3.23,6-3.23,6,3.23-6,3.23Zm6.61-2.31v6.46l-6.06,3.26v-6.46l6.06-3.26Zm-7.16,3.26v6.46l-6.06-3.26v-6.46l6.06,3.26ZM3.31,7.71c0-.3.25-.55.55-.55h12.12v2.42l-6.87,3.7s-.02,0-.02,0c-.17.1-.27.28-.27.47v4.62l-5.51,2.75V7.71Zm26.44,19.83c0,.3-.25.55-.55.55H3.86c-.3,0-.55-.25-.55-.55v-5.17l5.51-2.75v1.86c0,.2.11.39.29.48l7.16,3.86c.16.09.36.09.52,0l7.16-3.86c.18-.1.29-.28.29-.48v-1.86l5.51,2.75v5.17Zm0-6.4l-5.51-2.75v-4.62c0-.19-.1-.37-.27-.47,0,0-.02,0-.02,0l-6.87-3.7v-2.42h12.12c.3,0,.55.25.55.55v13.43Z"/>
      <path class="cls-1" d="m3.3,4.96c.3,0,.55-.25.55-.55s-.25-.55-.55-.55-.55.25-.55.55.25.55.55.55Z"/>
      <path class="cls-1" d="m5.51,4.96c.3,0,.55-.25.55-.55s-.25-.55-.55-.55-.55.25-.55.55.25.55.55.55Z"/>
      <path class="cls-1" d="m7.71,4.96c.3,0,.55-.25.55-.55s-.25-.55-.55-.55-.55.25-.55.55.25.55.55.55Z"/>
      <path class="cls-1" d="m21.48,4.96h7.71c.3,0,.55-.25.55-.55s-.25-.55-.55-.55h-7.71c-.3,0-.55.25-.55.55s.25.55.55.55Z"/>
    </g>
  </g>
</svg>